<svg width="40" height="32" viewBox="0 0 40 32" fill="none" xmlns="http://www.w3.org/2000/svg">
<g id="ph:waves-bold">
<path id="Vector" d="M38.2325 24.7639C38.6129 25.2232 38.7954 25.8148 38.7399 26.4086C38.6843 27.0025 38.3953 27.5499 37.9362 27.9307C34.5294 30.7582 31.4487 31.7501 28.6531 31.7501C24.9481 31.7501 21.7419 30.0082 18.9256 28.4801C14.2269 25.9264 10.5144 23.9107 4.93625 28.5364C4.47676 28.9173 3.88477 29.1001 3.29052 29.0445C2.69626 28.989 2.14842 28.6996 1.7675 28.2401C1.38658 27.7806 1.2038 27.1886 1.25936 26.5944C1.31491 26.0001 1.60426 25.4523 2.06375 25.0714C9.98562 18.5089 16.1262 21.8407 21.0744 24.5239C25.7731 27.0757 29.4856 29.0932 35.0637 24.4676C35.2912 24.279 35.5537 24.137 35.8361 24.0497C36.1184 23.9625 36.4152 23.9318 36.7095 23.9593C37.0038 23.9868 37.2897 24.072 37.551 24.2101C37.8124 24.3481 38.0439 24.5363 38.2325 24.7639ZM35.0637 13.9657C29.4856 18.5914 25.7731 16.5739 21.0744 14.022C16.1337 11.3407 9.98562 8.00137 2.06375 14.5695C1.60426 14.9504 1.31491 15.4983 1.25936 16.0925C1.2038 16.6868 1.38658 17.2788 1.7675 17.7382C2.14842 18.1977 2.69626 18.4871 3.29052 18.5426C3.88477 18.5982 4.47676 18.4154 4.93625 18.0345C10.5144 13.4089 14.2269 15.4245 18.9256 17.9782C21.7381 19.5064 24.9481 21.2482 28.6531 21.2482C31.4487 21.2482 34.5294 20.2564 37.9362 17.4307C38.3957 17.0498 38.6851 16.502 38.7406 15.9077C38.7962 15.3135 38.6134 14.7215 38.2325 14.262C37.8516 13.8025 37.3037 13.5132 36.7095 13.4576C36.1152 13.402 35.5232 13.5848 35.0637 13.9657ZM4.93625 7.53262C10.5144 2.90699 14.2269 4.92262 18.9256 7.47637C21.7381 9.00449 24.9481 10.7464 28.6531 10.7464C31.4487 10.7464 34.5294 9.75449 37.9362 6.92887C38.3957 6.54795 38.6851 6.0001 38.7406 5.40585C38.7962 4.81159 38.6134 4.21961 38.2325 3.76012C37.8516 3.30063 37.3037 3.01128 36.7095 2.95572C36.1152 2.90017 35.5232 3.08295 35.0637 3.46387C29.4856 8.08949 25.7731 6.07387 21.0744 3.52012C16.1337 0.838867 9.98562 -2.50051 2.06375 4.06949C1.83081 4.25631 1.63738 4.48762 1.49475 4.74994C1.35211 5.01227 1.26311 5.30036 1.23295 5.59743C1.20278 5.8945 1.23205 6.19461 1.31904 6.48025C1.40603 6.76589 1.54901 7.03137 1.73964 7.26119C1.93027 7.49102 2.16474 7.6806 2.42938 7.8189C2.69402 7.95719 2.98355 8.04142 3.28107 8.06668C3.5786 8.09194 3.87818 8.05773 4.16235 7.96604C4.44652 7.87435 4.7096 7.72701 4.93625 7.53262Z" fill="white"/>
</g>
</svg>
